name analog
datacolumns 19
datarows 42
range 0.7855 0.806
endheader
time	ground_force_vx	ground_force_vy	ground_force_vz	ground_force_px	ground_force_py	ground_force_pz	l_ground_force_vx	l_ground_force_vy	l_ground_force_vz	l_ground_force_px	l_ground_force_py	l_ground_force_pz	ground_torque_x	ground_torque_y	ground_torque_z	l_ground_torque_x	l_ground_torque_y	l_ground_torque_z
0.7855	-0.0	-0.0	-0.0	62.699161529541016	149.0835418701172	-651.9302368164062	21.353742599487305	-142.10958862304688	-615.267333984375	-0.0	-0.0	-0.0	-0.0	-0.0	-0.0	38260.16015625	-1750.0262451171875	-6759.92578125
0.786	-0.0	-0.0	-0.0	62.70451354980469	150.97642517089844	-655.6266479492188	25.653125762939453	-142.07830810546875	-631.513427734375	-0.0	-0.0	-0.0	-0.0	-0.0	-0.0	40114.0390625	-3516.607177734375	-6598.00732421875
0.7865	-0.0	-0.0	-0.0	63.01403045654297	151.5794219970703	-657.4768676757812	28.966716766357425	-141.3250274658203	-642.8089599609375	-0.0	-0.0	-0.0	-0.0	-0.0	-0.0	41734.81640625	-5304.64892578125	-6255.22119140625
0.787	-0.0	-0.0	-0.0	63.26124572753906	152.0877227783203	-658.4328002929688	31.13748550415039	-140.89927673339844	-649.6483154296875	-0.0	-0.0	-0.0	-0.0	-0.0	-0.0	42395.6484375	-6151.21728515625	-6053.0244140625
0.7875	-0.0	-0.0	-0.0	62.15276718139648	152.5446014404297	-658.2822875976562	30.42779922485352	-141.68345642089844	-646.506591796875	-0.0	-0.0	-0.0	-0.0	-0.0	-0.0	42152.84375	-6355.54150390625	-5818.11572265625
0.788	-0.0	-0.0	-0.0	60.973426818847656	152.7889404296875	-660.9225463867188	28.800037384033203	-142.9927978515625	-638.6427612304688	-0.0	-0.0	-0.0	-0.0	-0.0	-0.0	41487.0703125	-6164.091796875	-5858.251953125
0.7885	-0.0	-0.0	-0.0	58.436336517333984	153.3317108154297	-659.094970703125	26.227577209472656	-144.42129516601562	-630.3859252929688	-0.0	-0.0	-0.0	-0.0	-0.0	-0.0	40354.8984375	-5630.82568359375	-5690.26123046875
0.789	-0.0	-0.0	-0.0	56.50101089477539	153.28892517089844	-657.1703491210938	24.885047912597656	-143.81492614746094	-625.4381103515625	-0.0	-0.0	-0.0	-0.0	-0.0	-0.0	39350.2890625	-5774.67822265625	-5754.25146484375
0.7895	-0.0	-0.0	-0.0	54.71671676635742	152.60377502441406	-657.4996337890625	25.698619842529297	-141.60397338867188	-623.8737182617188	-0.0	-0.0	-0.0	-0.0	-0.0	-0.0	39697.97265625	-5750.21142578125	-5871.73876953125
0.79	-0.0	-0.0	-0.0	53.62844467163086	151.89344787597656	-654.8468017578125	28.047828674316406	-138.26629638671875	-626.318115234375	-0.0	-0.0	-0.0	-0.0	-0.0	-0.0	40031.95703125	-6163.20068359375	-5809.83935546875
0.7905	-0.0	-0.0	-0.0	51.84454345703125	150.55445861816406	-650.9785766601562	30.891010284423828	-135.17745971679688	-626.2674560546875	-0.0	-0.0	-0.0	-0.0	-0.0	-0.0	40323.2890625	-6607.5224609375	-5792.53564453125
0.791	-0.0	-0.0	-0.0	50.03194427490234	148.4895477294922	-650.7906494140625	34.274600982666016	-133.58555603027344	-631.853271484375	-0.0	-0.0	-0.0	-0.0	-0.0	-0.0	40690.1328125	-7321.21923828125	-5640.6669921875
0.7915	-0.0	-0.0	-0.0	49.124847412109375	146.20518493652344	-650.4381713867188	37.7757568359375	-132.7041015625	-636.4442138671875	-0.0	-0.0	-0.0	-0.0	-0.0	-0.0	41460.49609375	-8114.0205078125	-5312.18310546875
0.792	-0.0	-0.0	-0.0	49.37850189208984	144.0778350830078	-645.969970703125	40.52583694458008	-132.24742126464844	-641.9127807617188	-0.0	-0.0	-0.0	-0.0	-0.0	-0.0	42219.046875	-8590.5966796875	-5077.31982421875
0.7925	-0.0	-0.0	-0.0	47.682762145996094	141.21243286132812	-644.0797729492188	42.68481063842773	-132.05416870117188	-643.2547607421875	-0.0	-0.0	-0.0	-0.0	-0.0	-0.0	42308.09765625	-9023.7744140625	-4887.7724609375
0.793	-0.0	-0.0	-0.0	44.129425048828125	139.1621856689453	-638.7846069335938	43.39400863647461	-131.4078826904297	-644.4754638671875	-0.0	-0.0	-0.0	-0.0	-0.0	-0.0	42196.34765625	-9080.9833984375	-4907.01708984375
0.7935	-0.0	-0.0	-0.0	41.06679153442383	136.97860717773438	-634.9592895507812	41.85651397705078	-129.71524047851562	-641.1006469726562	-0.0	-0.0	-0.0	-0.0	-0.0	-0.0	41935.52734375	-8594.822265625	-5189.4326171875
0.794	-0.0	-0.0	-0.0	38.40543365478516	134.88381958007812	-630.484619140625	38.88510513305664	-127.5071792602539	-634.3504638671875	-0.0	-0.0	-0.0	-0.0	-0.0	-0.0	41434.80859375	-8082.1982421875	-5655.67919921875
0.7945	-0.0	-0.0	-0.0	35.56558609008789	132.77490234375	-627.7793579101562	34.25771713256836	-124.90215301513672	-626.903076171875	-0.0	-0.0	-0.0	-0.0	-0.0	-0.0	40437.92578125	-7399.66796875	-6330.7080078125
0.795	-0.0	-0.0	-0.0	34.5696907043457	130.47225952148438	-624.7172241210938	29.65959358215332	-122.32646942138672	-619.1033935546875	-0.0	-0.0	-0.0	-0.0	-0.0	-0.0	39695.07421875	-6443.96533203125	-6996.01416015625
0.7955	-0.0	-0.0	-0.0	32.93326187133789	128.49862670898438	-621.9567260742188	25.727537155151367	-120.0160903930664	-611.7708740234375	-0.0	-0.0	-0.0	-0.0	-0.0	-0.0	39365.73828125	-5781.234375	-7442.79296875
0.796	-0.0	-0.0	-0.0	31.147031784057617	126.073974609375	-620.1264038085938	22.75514793395996	-118.5871353149414	-607.9871215820312	-0.0	-0.0	-0.0	-0.0	-0.0	-0.0	38874.81640625	-5336.37646484375	-7968.75146484375
0.7965	-0.0	-0.0	-0.0	30.09286499023437	124.3104476928711	-622.0740966796875	20.37461853027344	-118.1600570678711	-603.7399291992188	-0.0	-0.0	-0.0	-0.0	-0.0	-0.0	38860.15625	-4799.71337890625	-8143.4697265625
0.797	-0.0	-0.0	-0.0	29.646684646606445	123.22419738769533	-623.7615356445312	19.17840576171875	-118.2627410888672	-603.5134887695312	-0.0	-0.0	-0.0	-0.0	-0.0	-0.0	38601.55859375	-4545.27294921875	-8208.4775390625
0.7975	-0.0	-0.0	-0.0	28.650928497314453	122.49694061279295	-627.020263671875	17.699182510375977	-118.34831237792967	-602.0501708984375	-0.0	-0.0	-0.0	-0.0	-0.0	-0.0	38219.7734375	-3976.339599609375	-8349.2021484375
0.798	-0.0	-0.0	-0.0	28.10131072998047	121.93038940429688	-625.665283203125	16.844045639038086	-118.5277099609375	-599.1875	-0.0	-0.0	-0.0	-0.0	-0.0	-0.0	38515.21875	-3607.5439453125	-8334.6689453125
0.7985	-0.0	-0.0	-0.0	25.852903366088867	121.6953353881836	-622.1749267578125	15.52438735961914	-118.42525482177734	-597.9850463867188	-0.0	-0.0	-0.0	-0.0	-0.0	-0.0	38144.35546875	-2887.217529296875	-8206.314453125
0.799	-0.0	-0.0	-0.0	24.56541633605957	121.8595962524414	-621.0191040039062	14.034305572509766	-118.3228988647461	-597.80322265625	-0.0	-0.0	-0.0	-0.0	-0.0	-0.0	38426.5234375	-2301.944091796875	-8435.2021484375
0.7995	-0.0	-0.0	-0.0	22.37308120727539	120.57935333251952	-619.4776611328125	12.54068374633789	-117.90945434570312	-597.4537963867188	-0.0	-0.0	-0.0	-0.0	-0.0	-0.0	38469.61328125	-2167.68896484375	-8515.8017578125
0.8	-0.0	-0.0	-0.0	20.72001838684082	119.3687744140625	-615.7233276367188	11.252249717712402	-116.30569458007812	-596.7733764648438	-0.0	-0.0	-0.0	-0.0	-0.0	-0.0	38498.72265625	-1706.2257080078125	-8599.1357421875
0.8005	-0.0	-0.0	-0.0	19.0684871673584	118.24813079833984	-610.0736694335938	9.669475555419922	-115.2320327758789	-591.9766235351562	-0.0	-0.0	-0.0	-0.0	-0.0	-0.0	38613.12890625	-1198.0667724609375	-8734.294921875
0.801	-0.0	-0.0	-0.0	16.04398536682129	116.54087829589844	-601.2774658203125	7.265841484069824	-113.62855529785156	-590.1968994140625	-0.0	-0.0	-0.0	-0.0	-0.0	-0.0	38269.453125	-642.6325073242188	-8793.1513671875
0.8015	-0.0	-0.0	-0.0	12.35866641998291	115.0119400024414	-596.1915283203125	4.865255832672119	-111.78770446777344	-583.192138671875	-0.0	-0.0	-0.0	-0.0	-0.0	-0.0	38309.21484375	331.7654113769531	-9027.01953125
0.802	-0.0	-0.0	-0.0	9.044333457946776	113.07893371582033	-587.989990234375	1.6105515956878662	-109.9468002319336	-577.92431640625	-0.0	-0.0	-0.0	-0.0	-0.0	-0.0	37574.45703125	1121.497802734375	-9270.69921875
0.8025	-0.0	-0.0	-0.0	5.89476490020752	111.46784973144533	-580.5191650390625	-1.1871654987335205	-108.4655303955078	-574.16455078125	-0.0	-0.0	-0.0	-0.0	-0.0	-0.0	37769.04296875	1717.996337890625	-9441.0556640625
0.803	-0.0	-0.0	-0.0	3.081324815750122	109.64407348632812	-572.2056274414062	-3.753161907196045	-106.5838394165039	-567.2906494140625	-0.0	-0.0	-0.0	-0.0	-0.0	-0.0	37101.734375	2348.48095703125	-9885.0380859375
0.8035	-0.0	-0.0	-0.0	0.762092113494873	108.382568359375	-564.4116821289062	-6.277628421783447	-104.51158905029295	-560.0391845703125	-0.0	-0.0	-0.0	-0.0	-0.0	-0.0	37017.46484375	3137.645263671875	-10087.12109375
0.804	-0.0	-0.0	-0.0	-1.784210205078125	107.09410858154295	-552.7265625	-8.352346420288086	-102.54147338867188	-553.1921997070312	-0.0	-0.0	-0.0	-0.0	-0.0	-0.0	36487.37890625	3898.61181640625	-10257.029296875
0.8045	-0.0	-0.0	-0.0	-3.527977228164673	106.26522064208984	-545.5233154296875	-10.269018173217772	-100.5234832763672	-544.7294921875	-0.0	-0.0	-0.0	-0.0	-0.0	-0.0	36253.74609375	4451.763671875	-10483.578125
0.805	-0.0	-0.0	-0.0	-4.933411598205566	105.14706420898438	-541.1061401367188	-12.432901382446287	-98.5053482055664	-539.7159423828125	-0.0	-0.0	-0.0	-0.0	-0.0	-0.0	35584.58203125	5243.77734375	-10705.6435546875
0.8055	-0.0	-0.0	-0.0	-6.249144077301025	104.33161926269533	-534.3082885742188	-14.300519943237305	-97.21559143066406	-531.7392578125	-0.0	-0.0	-0.0	-0.0	-0.0	-0.0	35147.76171875	5894.607421875	-10891.90234375
0.806	-0.0	-0.0	-0.0	-7.328555583953857	103.609375	-529.0109252929688	-16.477842330932617	-96.29290771484376	-525.1075439453125	-0.0	-0.0	-0.0	-0.0	-0.0	-0.0	34435.26171875	6502.45166015625	-11130.5283203125
